<?xml version="1.0" encoding="UTF-8" standalone="no"?>
<!-- Generator: Adobe Illustrator 18.1.1, SVG Export Plug-In . SVG Version: 6.00 Build 0)  -->

<svg
   xmlns:dc="http://purl.org/dc/elements/1.1/"
   xmlns:cc="http://creativecommons.org/ns#"
   xmlns:rdf="http://www.w3.org/1999/02/22-rdf-syntax-ns#"
   xmlns:svg="http://www.w3.org/2000/svg"
   xmlns="http://www.w3.org/2000/svg"
   xmlns:sodipodi="http://sodipodi.sourceforge.net/DTD/sodipodi-0.dtd"
   xmlns:inkscape="http://www.inkscape.org/namespaces/inkscape"
   version="1.1"
   id="Capa_1"
   x="0px"
   y="0px"
   viewBox="0 0 27.02 27.02"
   style="enable-background:new 0 0 27.02 27.02;"
   xml:space="preserve"
   width="512px"
   height="512px"
   inkscape:version="0.48.2 r9819"
   sodipodi:docname="home_full_purple.svg"><metadata
   id="metadata45"><rdf:RDF><cc:Work
       rdf:about=""><dc:format>image/svg+xml</dc:format><dc:type
         rdf:resource="http://purl.org/dc/dcmitype/StillImage" /></cc:Work></rdf:RDF></metadata><defs
   id="defs43" /><sodipodi:namedview
   pagecolor="#ffffff"
   bordercolor="#666666"
   borderopacity="1"
   objecttolerance="10"
   gridtolerance="10"
   guidetolerance="10"
   inkscape:pageopacity="0"
   inkscape:pageshadow="2"
   inkscape:window-width="1680"
   inkscape:window-height="988"
   id="namedview41"
   showgrid="false"
   inkscape:snap-global="true"
   inkscape:zoom="0.4609375"
   inkscape:cx="-117.15254"
   inkscape:cy="256"
   inkscape:window-x="-8"
   inkscape:window-y="-8"
   inkscape:window-maximized="1"
   inkscape:current-layer="Capa_1" />
<g
   id="g3">
	<path
   d="M3.674,24.876c0,0-0.024,0.604,0.566,0.604c0.734,0,6.811-0.008,6.811-0.008l0.01-5.581   c0,0-0.096-0.92,0.797-0.92h2.826c1.056,0,0.991,0.92,0.991,0.92l-0.012,5.563c0,0,5.762,0,6.667,0   c0.749,0,0.715-0.752,0.715-0.752V14.413l-9.396-8.358l-9.975,8.358C3.674,14.413,3.674,24.876,3.674,24.876z"
   fill="#ff8000"
   id="path5" />
	<path
   d="M0,13.635c0,0,0.847,1.561,2.694,0l11.038-9.338l10.349,9.28c2.138,1.542,2.939,0,2.939,0   L13.732,1.54L0,13.635z"
   fill="#ff8000"
   id="path7" />
	<polygon
   points="23.83,4.275 21.168,4.275 21.179,7.503 23.83,9.752  "
   fill="#ff8000"
   id="polygon9" />
</g>
<g
   id="g11">
</g>
<g
   id="g13">
</g>
<g
   id="g15">
</g>
<g
   id="g17">
</g>
<g
   id="g19">
</g>
<g
   id="g21">
</g>
<g
   id="g23">
</g>
<g
   id="g25">
</g>
<g
   id="g27">
</g>
<g
   id="g29">
</g>
<g
   id="g31">
</g>
<g
   id="g33">
</g>
<g
   id="g35">
</g>
<g
   id="g37">
</g>
<g
   id="g39">
</g>
<path
   style="fill:#a30062;fill-opacity:1;stroke:#000000;stroke-width:2.16949153000000020;stroke-opacity:1"
   d="M 72.910077,477.76154 C 72.185806,475.87413 71.59322,429.0575 71.59322,373.72459 l 0,-100.60528 93.3741,-78.2958 93.37411,-78.2958 8.2878,7.14631 c 4.55828,3.93048 44.54224,39.36327 88.85322,78.73954 l 80.56541,71.59322 0.0109,98.7715 c 0.009,85.89555 -0.4303,99.4001 -3.36729,103.59322 -3.36421,4.80308 -3.63256,4.82172 -69.42373,4.82172 l -66.04735,0 0,-56.40678 c 0,-52.81113 -0.26663,-56.67341 -4.18261,-60.58939 -5.61427,-5.61427 -18.69107,-7.28011 -49.87815,-6.35392 -21.42586,0.63632 -26.74438,1.46161 -29.92982,4.6443 -3.48872,3.48572 -3.9378,9.57859 -4.51734,61.28814 l -0.64352,57.41765 -66.92098,0 c -59.021851,0 -67.076423,-0.40507 -68.237843,-3.43168 z"
   id="path3034"
   inkscape:connector-curvature="0"
   transform="scale(0.05277344,0.05277344)" /><path
   style="fill:#a30062;fill-opacity:1;stroke:#000000;stroke-width:2.16949153;stroke-opacity:1"
   d=""
   id="path3804"
   inkscape:connector-curvature="0"
   transform="scale(0.05277344,0.05277344)" /><path
   style="fill:#a30062;fill-opacity:1;stroke:#000000;stroke-width:2.16949153;stroke-opacity:1"
   d="m 424.16825,160.50883 -22.09616,-18.84103 -0.14113,-29.83051 -0.14113,-29.83051 23.86441,0 23.8644,0 0,48.81356 c 0,26.84746 -0.7322,48.74965 -1.62711,48.67155 -0.89492,-0.0781 -11.57039,-8.62049 -23.72328,-18.98306 l 0,0 z"
   id="path3806"
   inkscape:connector-curvature="0"
   transform="scale(0.05277344,0.05277344)" /><path
   style="fill:#a30062;fill-opacity:1;stroke:#000000;stroke-width:2.16949153;stroke-opacity:1"
   d="m 11.281356,266.95257 c -4.1762713,-2.08629 -7.5932204,-5.21678 -7.5932204,-6.95667 0,-3.00696 253.2974644,-227.928281 256.5957844,-227.850145 1.86804,0.04425 248.57672,223.293475 249.59727,225.863155 1.27449,3.209 -13.57859,10.55815 -21.3117,10.54483 -16.55962,-0.0286 -26.71746,-7.8743 -128.77012,-99.46021 L 260.31735,79.814634 249.5166,88.857541 C 243.57619,93.83114 195.10918,134.82903 141.81216,179.96396 88.515133,225.09888 40.769961,263.99061 35.711779,266.39 c -11.249354,5.33623 -14.714835,5.41605 -24.430423,0.56257 z"
   id="path3808"
   inkscape:connector-curvature="0"
   transform="scale(0.05277344,0.05277344)" /></svg>