<?xml version="1.0" encoding="UTF-8" standalone="no"?>
<svg
   xmlns:dc="http://purl.org/dc/elements/1.1/"
   xmlns:cc="http://creativecommons.org/ns#"
   xmlns:rdf="http://www.w3.org/1999/02/22-rdf-syntax-ns#"
   xmlns:svg="http://www.w3.org/2000/svg"
   xmlns="http://www.w3.org/2000/svg"
   xmlns:sodipodi="http://sodipodi.sourceforge.net/DTD/sodipodi-0.dtd"
   xmlns:inkscape="http://www.inkscape.org/namespaces/inkscape"
   version="1.1"
   viewBox="0 0 279.131 279.131"
   enable-background="new 0 0 279.131 279.131"
   width="512px"
   height="512px"
   id="svg2"
   inkscape:version="0.48.2 r9819"
   sodipodi:docname="houses_purple.svg">
  <metadata
     id="metadata12">
    <rdf:RDF>
      <cc:Work
         rdf:about="">
        <dc:format>image/svg+xml</dc:format>
        <dc:type
           rdf:resource="http://purl.org/dc/dcmitype/StillImage" />
        <dc:title />
      </cc:Work>
    </rdf:RDF>
  </metadata>
  <defs
     id="defs10" />
  <sodipodi:namedview
     pagecolor="#ffffff"
     bordercolor="#666666"
     borderopacity="1"
     objecttolerance="10"
     gridtolerance="10"
     guidetolerance="10"
     inkscape:pageopacity="0"
     inkscape:pageshadow="2"
     inkscape:window-width="1680"
     inkscape:window-height="988"
     id="namedview8"
     showgrid="false"
     inkscape:zoom="0.4609375"
     inkscape:cx="-117.15254"
     inkscape:cy="256"
     inkscape:window-x="-8"
     inkscape:window-y="-8"
     inkscape:window-maximized="1"
     inkscape:current-layer="svg2"
     inkscape:snap-global="true" />
  <g
     id="g4">
    <path
       d="m276.346,109.821l-93.71-70.666c-2.496-1.882-5.934-1.882-8.43,0l-15.405,11.617-15.405-11.617c-2.496-1.882-5.934-1.882-8.43,0l-15.021,11.327-15.021-11.327c-2.496-1.882-5.934-1.882-8.43,0l-93.71,70.666c-1.753,1.323-2.784,3.393-2.784,5.589v118.977c0,3.866 3.134,7 7,7h38.472 39.238 109.711 38.472 39.238c3.866,0 7-3.134 7-7v-118.977c0-2.196-1.031-4.266-2.785-5.589zm-11.215,117.566h-25.238v-111.977c0-2.197-1.031-4.266-2.785-5.589l-66.68-50.282 7.993-6.028 86.71,65.388v108.488zm-63.71,0v-111.977c0-2.197-1.031-4.266-2.785-5.589l-67.064-50.571 7.61-5.738 86.711,65.388v108.488h-24.472zm-89.247-.001h-20.464-2.464v-50.76h22.928v50.76zm14,0v-57.76c0-3.866-3.134-7-7-7h-36.928c-3.866,0-7,3.134-7,7v57.76h-22.774-38.472v-108.488l86.71-65.388 86.711,65.388v108.488h-61.247z"
       fill="#ff8000"
       id="path6" />
  </g>
  <path
     style="fill:#8c153d;stroke:none;fill-opacity:1"
     d="M 6.2064466,437.99621 1.0847458,433.85003 0.48482929,324.39049 C 0.11667677,257.21813 0.69963151,212.78806 1.9937959,209.38415 4.7366556,202.16988 177.77411,71.159322 184.55979,71.159322 c 2.607,0 11.32458,4.881356 19.37241,10.847458 8.04783,5.966101 15.48928,10.828064 16.53654,10.804363 1.04728,-0.02371 8.12075,-4.905058 15.71881,-10.847458 7.59808,-5.942399 16.07609,-10.804363 18.84,-10.804363 2.76393,0 12.05864,5.291069 20.65494,11.757931 l 15.62961,11.75793 15.62183,-11.75793 c 8.59201,-6.466862 17.78734,-11.757931 20.43405,-11.757931 6.85356,0 179.86947,130.942438 182.63821,138.224828 1.29417,3.40391 1.87713,47.83398 1.50897,115.00634 l -0.59991,109.45954 -5.12169,4.14618 c -4.97464,4.0271 -12.14744,4.14616 -249.79356,4.14616 -237.646123,0 -244.818922,-0.11906 -249.7935534,-4.14616 z M 138.84746,362.95593 c 0,-52.42938 0.22687,-55.54892 4.33898,-59.66101 3.99416,-3.99417 7.23164,-4.33899 40.73761,-4.33899 29.43236,0 37.32146,0.64638 41.22034,3.37725 4.77192,3.34241 4.82171,3.95835 4.82171,59.66102 l 0,56.28377 57.49153,0 57.49152,0 0,-100.48384 0,-100.48385 -78.64407,-59.26779 C 223.05085,125.4452 186.58783,98.662932 185.27617,98.526332 183.9645,98.38973 147.12835,125.12542 103.41806,157.93898 L 23.944799,217.6 l -0.0402,100.33898 -0.0402,100.33899 57.491525,0 57.491528,0 0,-55.32204 z m 67.25423,7.59322 0,-47.72881 -21.69491,0 -21.69492,0 0,47.72881 0,47.72882 21.69492,0 21.69491,0 0,-47.72882 z m 208.27119,-53.07092 0,-100.79974 -79.31364,-59.93513 -79.31363,-59.935133 -7.45121,5.073853 c -4.09815,2.79062 -7.45787,5.69864 -7.46602,6.46228 -0.009,0.76364 27.71486,22.2416 61.60668,47.72881 33.89182,25.48722 62.69182,48.58294 64,51.32383 1.62159,3.39753 2.3785,37.7454 2.3785,107.93219 l 0,102.94878 22.77966,0 22.77966,0 0,-100.79974 z m 73.72251,0.46075 L 488.05519,217.6 408.71834,157.93898 c -43.63529,-32.81356 -80.00965,-59.913866 -80.83193,-60.222908 -0.82229,-0.309044 -4.88566,2.367738 -9.02973,5.948398 -6.25289,5.40279 -6.98106,6.86841 -4.28041,8.61549 1.78983,1.15786 30.1017,22.42507 62.91526,47.26047 l 59.66101,45.15527 0.56281,106.79113 0.56283,106.79114 24.9287,0 24.92871,0 -0.0401,-100.33899 -7e-5,0 z"
     id="path2989"
     inkscape:connector-curvature="0"
     transform="scale(0.54517773,0.54517773)" />
</svg>
