<?xml version="1.0" encoding="UTF-8" standalone="no"?>
<!-- Generator: Adobe Illustrator 16.0.0, SVG Export Plug-In . SVG Version: 6.00 Build 0)  -->

<svg
   xmlns:dc="http://purl.org/dc/elements/1.1/"
   xmlns:cc="http://creativecommons.org/ns#"
   xmlns:rdf="http://www.w3.org/1999/02/22-rdf-syntax-ns#"
   xmlns:svg="http://www.w3.org/2000/svg"
   xmlns="http://www.w3.org/2000/svg"
   xmlns:sodipodi="http://sodipodi.sourceforge.net/DTD/sodipodi-0.dtd"
   xmlns:inkscape="http://www.inkscape.org/namespaces/inkscape"
   version="1.1"
   id="Capa_1"
   x="0px"
   y="0px"
   width="512px"
   height="512px"
   viewBox="0 0 64.355 64.355"
   style="enable-background:new 0 0 64.355 64.355;"
   xml:space="preserve"
   inkscape:version="0.48.2 r9819"
   sodipodi:docname="map_mark_purple.svg"><metadata
   id="metadata47"><rdf:RDF><cc:Work
       rdf:about=""><dc:format>image/svg+xml</dc:format><dc:type
         rdf:resource="http://purl.org/dc/dcmitype/StillImage" /><dc:title></dc:title></cc:Work></rdf:RDF></metadata><defs
   id="defs45" /><sodipodi:namedview
   pagecolor="#ffffff"
   bordercolor="#666666"
   borderopacity="1"
   objecttolerance="10"
   gridtolerance="10"
   guidetolerance="10"
   inkscape:pageopacity="0"
   inkscape:pageshadow="2"
   inkscape:window-width="1680"
   inkscape:window-height="988"
   id="namedview43"
   showgrid="false"
   inkscape:zoom="0.4609375"
   inkscape:cx="256"
   inkscape:cy="237.55932"
   inkscape:window-x="-8"
   inkscape:window-y="-8"
   inkscape:window-maximized="1"
   inkscape:current-layer="Capa_1" />
<g
   id="g3">
	<g
   id="g5">
		<path
   d="M32.177,0C19.863,0,9.845,10.02,9.845,22.334c0,11.854,20.262,39.549,21.124,40.721l0.806,1.097    c0.094,0.129,0.244,0.204,0.402,0.204c0.16,0,0.309-0.075,0.403-0.204l0.806-1.097c0.862-1.172,21.125-28.867,21.125-40.721    C54.511,10.019,44.491,0,32.177,0z M32.177,3c10.66,0,19.334,8.674,19.334,19.334c0,9.361-15.279,31.541-19.334,37.262    c-4.055-5.721-19.332-27.896-19.332-37.262C12.845,11.674,21.517,3,32.177,3z"
   fill="#006DF0"
   id="path7" />
		<g
   id="g9">
			<path
   d="M32.177,30.834c-4.687,0-8.5-3.813-8.5-8.5c0-4.688,3.813-8.5,8.5-8.5c4.688,0,8.5,3.813,8.5,8.5     C40.677,27.02,36.864,30.834,32.177,30.834z M32.177,15.834c-3.584,0-6.5,2.916-6.5,6.5s2.916,6.5,6.5,6.5s6.5-2.916,6.5-6.5     S35.761,15.834,32.177,15.834z"
   fill="#006DF0"
   id="path11" />
		</g>
	</g>
</g>
<g
   id="g13">
</g>
<g
   id="g15">
</g>
<g
   id="g17">
</g>
<g
   id="g19">
</g>
<g
   id="g21">
</g>
<g
   id="g23">
</g>
<g
   id="g25">
</g>
<g
   id="g27">
</g>
<g
   id="g29">
</g>
<g
   id="g31">
</g>
<g
   id="g33">
</g>
<g
   id="g35">
</g>
<g
   id="g37">
</g>
<g
   id="g39">
</g>
<g
   id="g41">
</g>
<path
   style="fill:#6600cc;fill-opacity:1;stroke:#000000;stroke-width:2.16949153;stroke-opacity:1"
   d="M 227.45705,472.77878 C 152.94844,365.89494 101.01221,270.89419 85.562636,213.22827 62.393078,126.7473 118.49814,33.85032 209.79161,7.5339004 c 24.24786,-6.98973563 68.16892,-6.98973563 92.41678,0 C 378.81392,29.616351 431.74684,98.2761 431.72335,175.52888 c -0.013,39.32645 -20.71672,92.16644 -67.70977,172.80001 C 324.38378,416.32822 262.06787,509.05585 256,509.05585 c -1.78983,0 -14.63416,-16.32469 -28.54295,-36.27707 l 0,0 z m 59.49248,-42.24319 C 349.76538,336.5466 390.6964,260.84766 404.54979,213.04247 419.36575,161.91573 404.66152,108.91223 364.44856,68.49134 348.70467,52.666058 342.6499,48.246472 325.3181,39.928585 c -46.95611,-22.535175 -91.68009,-22.535175 -138.63619,0 -17.27136,8.288872 -23.45755,12.793552 -39.23232,28.568318 -15.50946,15.509462 -20.47606,22.268626 -28.90124,39.332387 -5.7741,11.69447 -11.64745,27.64083 -13.58206,36.87579 -4.47477,21.36057 -2.99152,52.12457 3.50408,72.67797 10.07927,31.89287 38.21004,88.15434 72.1357,144.27119 19.52769,32.30099 73.33469,112.81356 75.39393,112.81356 0.87353,0 14.80082,-19.76949 30.94953,-43.93221 z"
   id="path3024"
   inkscape:connector-curvature="0"
   transform="scale(0.12569336,0.12569336)" /><path
   style="fill:#6600cc;fill-opacity:1;stroke:#000000;stroke-width:2.16949153;stroke-opacity:1"
   d="M 238.38017,241.47524 C 190.08405,227.55287 173.93505,166.12639 209.38401,131.18161 223.05132,117.70868 234.64733,113.24746 256,113.24746 c 14.78188,0 20.42067,0.97561 28.42003,4.9172 23.19654,11.42981 37.01413,33.48374 37.17597,59.33567 0.0822,13.13149 -0.91615,17.20833 -7.25882,29.64197 -14.5619,28.54592 -46.28717,42.8859 -75.95701,34.33294 z m 40.52056,-16.25192 c 11.13312,-5.05682 24.18488,-20.17439 27.25223,-31.56566 6.35976,-23.61834 -3.02669,-48.52739 -22.92154,-60.82743 -9.40032,-5.81177 -12.52772,-6.56582 -27.23142,-6.56582 -14.7037,0 -17.8311,0.75405 -27.23142,6.56582 -27.23764,16.83974 -33.24716,54.77488 -12.51429,78.99658 10.64895,12.4409 21.96552,17.39315 39.74571,17.39315 9.06849,0 17.24227,-1.42649 22.90073,-3.99664 l 0,0 z"
   id="path3026"
   inkscape:connector-curvature="0"
   transform="scale(0.12569336,0.12569336)" /></svg>