<?xml version="1.0" encoding="UTF-8" standalone="no"?>
<!-- Generator: Adobe Illustrator 16.0.0, SVG Export Plug-In . SVG Version: 6.00 Build 0)  -->

<svg
   xmlns:dc="http://purl.org/dc/elements/1.1/"
   xmlns:cc="http://creativecommons.org/ns#"
   xmlns:rdf="http://www.w3.org/1999/02/22-rdf-syntax-ns#"
   xmlns:svg="http://www.w3.org/2000/svg"
   xmlns="http://www.w3.org/2000/svg"
   xmlns:sodipodi="http://sodipodi.sourceforge.net/DTD/sodipodi-0.dtd"
   xmlns:inkscape="http://www.inkscape.org/namespaces/inkscape"
   version="1.1"
   id="Capa_1"
   x="0px"
   y="0px"
   width="512px"
   height="512px"
   viewBox="0 0 459 459"
   style="enable-background:new 0 0 459 459;"
   xml:space="preserve"
   inkscape:version="0.48.2 r9819"
   sodipodi:docname="parking_purple.svg"><metadata
   id="metadata44"><rdf:RDF><cc:Work
       rdf:about=""><dc:format>image/svg+xml</dc:format><dc:type
         rdf:resource="http://purl.org/dc/dcmitype/StillImage" /><dc:title></dc:title></cc:Work></rdf:RDF></metadata><defs
   id="defs42" /><sodipodi:namedview
   pagecolor="#ffffff"
   bordercolor="#666666"
   borderopacity="1"
   objecttolerance="10"
   gridtolerance="10"
   guidetolerance="10"
   inkscape:pageopacity="0"
   inkscape:pageshadow="2"
   inkscape:window-width="1680"
   inkscape:window-height="988"
   id="namedview40"
   showgrid="false"
   inkscape:zoom="0.4609375"
   inkscape:cx="256"
   inkscape:cy="237.55932"
   inkscape:window-x="-8"
   inkscape:window-y="-8"
   inkscape:window-maximized="1"
   inkscape:current-layer="Capa_1" />
<g
   id="g3">
	<g
   id="drive-ms-powerpoint">
		<path
   d="M408,0H51C22.95,0,0,22.95,0,51v357c0,28.05,22.95,51,51,51h357c28.05,0,51-22.95,51-51V51C459,22.95,436.05,0,408,0z     M173.4,265.2V357h-45.9V102h109.65c38.25,0,56.1,7.65,71.399,22.95c17.851,15.3,22.95,35.7,22.95,58.65    c0,25.5-7.65,45.9-22.95,58.65s-33.149,20.4-71.399,20.4H173.4V265.2z"
   fill="#006DF0"
   id="path6" />
		<path
   d="M173.4,229.5v-91.8h58.65c17.851,0,30.601,5.1,38.25,15.3c7.65,10.2,12.75,17.85,12.75,30.6c0,15.3-5.1,22.95-12.75,33.15    c-7.649,7.65-17.85,12.75-35.7,12.75H173.4z"
   fill="#006DF0"
   id="path8" />
	</g>
</g>
<g
   id="g10">
</g>
<g
   id="g12">
</g>
<g
   id="g14">
</g>
<g
   id="g16">
</g>
<g
   id="g18">
</g>
<g
   id="g20">
</g>
<g
   id="g22">
</g>
<g
   id="g24">
</g>
<g
   id="g26">
</g>
<g
   id="g28">
</g>
<g
   id="g30">
</g>
<g
   id="g32">
</g>
<g
   id="g34">
</g>
<g
   id="g36">
</g>
<g
   id="g38">
</g>
<path
   style="fill:#4c0000;fill-opacity:1;stroke:#000000;stroke-width:2.16949153;stroke-opacity:1"
   d="M 33.627119,504.87693 C 20.337775,498.59439 12.629609,490.63103 6.0824175,476.42034 l -4.9976717,-10.84746 0,-208.27119 C 1.0847458,96.802399 1.7072295,46.985151 3.7985896,40.113362 7.4072784,28.255937 21.487319,12.62256 34.193929,6.3647536 l 10.280647,-5.0630587 211.525424,0 211.52542,0 10.28066,5.0630587 c 12.7066,6.2578064 26.78665,21.8911834 30.39534,33.7486084 2.09134,6.871789 2.71383,56.689037 2.71383,217.188328 l 0,208.27119 -4.99766,10.84746 c -6.5472,14.21069 -14.25536,22.17405 -27.54471,28.45659 l -10.84746,5.12814 -211.52542,0 -211.525424,0 -10.847457,-5.12814 z m 161.627121,-158.62608 0,-53.15254 48.27118,-0.0321 c 64.37027,-0.0427 82.95281,-4.59358 104.74004,-25.6506 23.35221,-22.56954 29.41405,-73.95559 12.76791,-108.23334 -6.48788,-13.35982 -23.44569,-29.28924 -38.86388,-36.50699 -17.30126,-8.09929 -34.58731,-9.61095 -110.10169,-9.62837 l -71.05085,-0.0164 0,143.18644 0,143.18644 27.11864,0 27.11865,0 0,-53.15254 z"
   id="path3021"
   inkscape:connector-curvature="0"
   transform="scale(0.89648437,0.89648437)" /><path
   style="fill:#6600cc;fill-opacity:1;stroke:#000000;stroke-width:2.16949153000000020;stroke-opacity:1"
   d="m 195.25424,204.07513 0,-50.29214 40.67796,0.87011 c 36.50361,0.78082 41.59615,1.35164 49.62541,5.56252 10.70389,5.61358 19.4966,15.54008 25.26507,28.52289 8.63472,19.43373 0.25784,45.92428 -18.43781,58.30668 -8.88604,5.88534 -9.17441,5.92134 -53.03263,6.61981 l -44.098,0.70228 0,-50.29215 z"
   id="path3023"
   inkscape:connector-curvature="0"
   transform="scale(0.89648437,0.89648437)" /><path
   style="fill:#6600cc;fill-opacity:1;stroke:#000000;stroke-width:2.16949153;stroke-opacity:1"
   d="M 32.128505,501.50914 C 21.256897,495.84827 14.319377,487.96514 6.4215943,472.29831 L 1.5001272,462.53559 3.0008684,255.34915 C 3.8580938,137.00399 5.3835479,44.857366 6.5583746,40.454324 9.2322159,30.433243 21.329814,16.433262 33.456215,9.3267176 l 9.621512,-5.638582 212.922273,0 212.92227,0 9.62152,5.638582 c 12.1264,7.1065444 24.224,21.1065254 26.89784,31.1276064 1.17482,4.403042 2.70028,96.549666 3.55751,214.894826 l 1.50074,207.18644 -4.92147,9.76272 c -8.00846,15.88634 -14.89783,23.60103 -26.1832,29.31976 l -10.64079,5.3921 -213.22468,-0.10101 -213.224655,-0.10101 -10.17658,-5.29901 z m 165.295225,-153.9566 0,-53.15254 45.01695,-0.0757 c 67.55527,-0.11368 86.08536,-4.64253 107.04755,-26.16363 23.34032,-23.96262 29.63208,-73.46216 13.65612,-107.43759 -6.71292,-14.27613 -23.5134,-31.02476 -38.46415,-38.34542 -17.29989,-8.47093 -33.93952,-10.04498 -113.15478,-10.70405 l -71.59322,-0.59562 -0.55775,144.81356 -0.55774,144.81355 29.30351,0 29.30351,0 0,-53.15254 z"
   id="path3025"
   inkscape:connector-curvature="0"
   transform="scale(0.89648437,0.89648437)" /></svg>