<?xml version="1.0" encoding="iso-8859-1"?>
<!-- Generator: Adobe Illustrator 19.0.0, SVG Export Plug-In . SVG Version: 6.00 Build 0)  -->
<svg xmlns="http://www.w3.org/2000/svg" xmlns:xlink="http://www.w3.org/1999/xlink" version="1.1" id="Layer_1" x="0px" y="0px" viewBox="0 0 512 512" style="enable-background:new 0 0 512 512;" xml:space="preserve" width="512px" height="512px">
<g>
	<g>
		<path d="M510.434,499.133L391.866,337.45c-0.033-0.045-0.071-0.084-0.106-0.128c-0.117-0.153-0.239-0.302-0.366-0.446    c-0.068-0.077-0.137-0.152-0.208-0.226c-0.122-0.127-0.248-0.249-0.378-0.368c-0.081-0.074-0.162-0.15-0.246-0.221    c-0.131-0.111-0.267-0.213-0.404-0.316c-0.087-0.065-0.172-0.133-0.263-0.194c-0.161-0.109-0.327-0.208-0.495-0.306    c-0.071-0.042-0.14-0.088-0.213-0.128c-0.244-0.131-0.494-0.25-0.749-0.357c-0.054-0.023-0.11-0.039-0.165-0.059    c-0.208-0.081-0.418-0.156-0.633-0.22c-0.08-0.024-0.162-0.041-0.243-0.063c-0.194-0.051-0.388-0.098-0.586-0.135    c-0.091-0.016-0.181-0.028-0.273-0.042c-0.191-0.028-0.384-0.052-0.578-0.067c-0.045-0.003-0.091-0.013-0.136-0.016    c-0.053-0.003-0.106,0.002-0.158,0c-0.19-0.008-0.38-0.008-0.573-0.001c-0.099,0.003-0.198,0.006-0.298,0.014    c-0.183,0.013-0.368,0.034-0.553,0.059c-0.105,0.014-0.209,0.028-0.314,0.046c-0.056,0.01-0.112,0.014-0.169,0.025    c-0.127,0.025-0.247,0.064-0.372,0.094c-0.098,0.025-0.197,0.046-0.294,0.074c-0.198,0.057-0.39,0.125-0.581,0.196    c-0.071,0.027-0.144,0.05-0.215,0.079c-0.239,0.097-0.471,0.206-0.696,0.323c-0.022,0.012-0.045,0.021-0.067,0.032    c-0.513,0.274-0.99,0.6-1.425,0.971c-0.046,0.039-0.088,0.083-0.134,0.123c-0.165,0.147-0.324,0.297-0.475,0.456    c-0.022,0.022-0.044,0.04-0.066,0.063l-58.998,63.213L199.411,231.833v-86.317h185.936c2.803,0,5.405-1.451,6.877-3.834    c1.472-2.383,1.607-5.359,0.354-7.865l-30.529-61.058l30.529-61.058c1.254-2.506,1.119-5.482-0.354-7.865    C390.751,1.451,388.149,0,385.347,0h-194.02c-4.466,0-8.084,3.62-8.084,8.084v223.868L1.4,499.368    c-1.685,2.476-1.862,5.682-0.46,8.328c1.401,2.646,4.151,4.302,7.145,4.302h269.443c0.009,0,0.017,0.002,0.027,0.002    s0.018-0.002,0.027-0.002h140.057c0.012,0,0.024,0.001,0.036,0.001c0.011,0,0.022-0.001,0.032-0.001h86.207    c3.046,0,5.834-1.713,7.211-4.43C512.503,504.85,512.236,501.59,510.434,499.133z M199.411,16.168h172.856L345.78,69.142    c-1.138,2.275-1.138,4.955,0,7.23l26.487,52.974H199.411V16.168z M283.459,495.829l-24.216-75.674    c-1.071-3.348-4.184-5.62-7.699-5.62c-5.477,0-9.369,5.331-7.699,10.548l22.638,70.746H23.359l165.324-243.123l42.559,132.999    c1.071,3.348,4.184,5.62,7.699,5.62c5.477,0,9.369-5.331,7.699-10.548l-32.068-100.211l154.992,215.264H283.459z M389.488,495.829    l-59.419-82.525l50.439-54.042l27.314,136.568H389.488z M424.312,495.829l-23.869-119.344l87.518,119.344H424.312z" fill="#006DF0"/>
	</g>
</g>
<g>
</g>
<g>
</g>
<g>
</g>
<g>
</g>
<g>
</g>
<g>
</g>
<g>
</g>
<g>
</g>
<g>
</g>
<g>
</g>
<g>
</g>
<g>
</g>
<g>
</g>
<g>
</g>
<g>
</g>
</svg>
